<svg width="0" height="0" class="hidden">
  <symbol viewBox="0 0 0 0" id="sprite">
    <symbol fill="none" xmlns="http://www.w3.org/2000/svg" viewBox="0 0 24 24" id="Call">
      <g id="Iconly/Two-tone/Call">
        <g id="Call">
          <path id="Stroke 1" fill-rule="evenodd" clip-rule="evenodd" d="M11.5317 12.4724C15.5208 16.4604 16.4258 11.8467 18.9656 14.3848C21.4143 16.8328 22.8216 17.3232 19.7192 20.4247C19.3306 20.737 16.8616 24.4943 8.1846 15.8197C-0.493478 7.144 3.26158 4.67244 3.57397 4.28395C6.68387 1.17385 7.16586 2.58938 9.61449 5.03733C12.1544 7.5765 7.54266 8.48441 11.5317 12.4724Z" stroke="#FF5722" stroke-width="1.5" stroke-linecap="round" stroke-linejoin="round"></path>
        </g>
        <path id="Stroke 3" opacity="0.4" d="M14.353 6.04297C16.124 6.38697 17.508 7.77197 17.853 9.54297" stroke="#FF5722" stroke-width="1.5" stroke-linecap="round" stroke-linejoin="round"></path>
      </g>
    </symbol>
    <symbol fill="none" xmlns="http://www.w3.org/2000/svg" viewBox="0 0 24 24" id="Location">
      <path fill-rule="evenodd" clip-rule="evenodd" d="M4.23901 10.3912C4.25342 6.15065 7.70278 2.72465 11.9434 2.73906C16.1839 2.75347 19.6099 6.20282 19.5955 10.4434V10.5304C19.5434 13.2869 18.0042 15.8347 16.1173 17.826C15.0381 18.9466 13.833 19.9387 12.526 20.7825C12.1765 21.0848 11.6581 21.0848 11.3086 20.7825C9.36008 19.5143 7.64995 17.9131 6.2564 16.0521C5.01436 14.4293 4.30918 12.4597 4.23901 10.4173L4.23901 10.3912Z" stroke="#FF5722" stroke-width="1.5" stroke-linecap="round" stroke-linejoin="round"></path>
      <circle opacity="0.4" cx="11.9172" cy="10.539" r="2.46087" stroke="#FF5722" stroke-width="1.5" stroke-linecap="round" stroke-linejoin="round"></circle>
    </symbol>
    <symbol fill="none" xmlns="http://www.w3.org/2000/svg" viewBox="0 0 24 24" id="Message">
      <path opacity="0.4" d="M17.2678 8.56104L13.0024 11.9953C12.1952 12.6282 11.0636 12.6282 10.2564 11.9953L5.95435 8.56104" stroke="#FF5722" stroke-width="1.5" stroke-linecap="round" stroke-linejoin="round"></path>
      <path fill-rule="evenodd" clip-rule="evenodd" d="M6.88787 3H16.3158C17.6752 3.01525 18.969 3.58993 19.896 4.5902C20.823 5.59048 21.3022 6.92903 21.222 8.29412V14.822C21.3022 16.1871 20.823 17.5256 19.896 18.5259C18.969 19.5262 17.6752 20.1009 16.3158 20.1161H6.88787C3.96796 20.1161 2 17.7407 2 14.822V8.29412C2 5.37545 3.96796 3 6.88787 3Z" stroke="#FF5722" stroke-width="1.5" stroke-linecap="round" stroke-linejoin="round"></path>
    </symbol>
  </symbol>
  <symbol viewBox="0 0 0 0" id="sprite-social">
    <symbol fill="none" xmlns="http://www.w3.org/2000/svg" viewBox="0 0 24 24" id="facebooksvg">
      <path d="M22.67 0H1.33C0.978071 0.00261668 0.641298 0.143581 0.39244 0.39244C0.143581 0.641298 0.00261668 0.978071 0 1.33V22.67C0.00261668 23.0219 0.143581 23.3587 0.39244 23.6076C0.641298 23.8564 0.978071 23.9974 1.33 24H12.82V14.72H9.7V11.09H12.82V8.42C12.82 5.32 14.71 3.63 17.49 3.63C18.42 3.63 19.35 3.63 20.28 3.77V7H18.37C16.86 7 16.57 7.72 16.57 8.77V11.08H20.17L19.7 14.71H16.57V24H22.67C23.0219 23.9974 23.3587 23.8564 23.6076 23.6076C23.8564 23.3587 23.9974 23.0219 24 22.67V1.33C23.9974 0.978071 23.8564 0.641298 23.6076 0.39244C23.3587 0.143581 23.0219 0.00261668 22.67 0V0Z" fill="#F24E1E"></path>
    </symbol>
    <symbol fill="none" xmlns="http://www.w3.org/2000/svg" viewBox="0 0 24 24" id="mdi_twitter">
      <path d="M22.46 6C21.69 6.35 20.86 6.58 20 6.69C20.88 6.16 21.56 5.32 21.88 4.31C21.05 4.81 20.13 5.16 19.16 5.36C18.37 4.5 17.26 4 16 4C13.65 4 11.73 5.92 11.73 8.29C11.73 8.63 11.77 8.96 11.84 9.27C8.28 9.09 5.11 7.38 3 4.79C2.63 5.42 2.42 6.16 2.42 6.94C2.42 8.43 3.17 9.75 4.33 10.5C3.62 10.5 2.96 10.3 2.38 10V10.03C2.38 12.11 3.86 13.85 5.82 14.24C5.19073 14.4122 4.5301 14.4362 3.89 14.31C4.16161 15.1625 4.69354 15.9084 5.41102 16.4429C6.1285 16.9775 6.99545 17.2737 7.89 17.29C6.37363 18.4904 4.494 19.1393 2.56 19.13C2.22 19.13 1.88 19.11 1.54 19.07C3.44 20.29 5.7 21 8.12 21C16 21 20.33 14.46 20.33 8.79C20.33 8.6 20.33 8.42 20.32 8.23C21.16 7.63 21.88 6.87 22.46 6V6Z" fill="#F24E1E"></path>
    </symbol>
    <symbol fill="none" xmlns="http://www.w3.org/2000/svg" viewBox="0 0 24 24" id="prime_linkedin">
      <path d="M22.0795 0.00215312H2.05495C1.79685 -0.009939 1.53889 0.02899 1.29585 0.116712C1.05281 0.204434 0.829461 0.339226 0.638584 0.513371C0.447708 0.687517 0.293054 0.897597 0.183477 1.13158C0.0739005 1.36557 0.0115514 1.61887 0 1.87698V21.9452C0.0151201 22.4854 0.236477 22.9993 0.618627 23.3814C1.00078 23.7635 1.51472 23.9849 2.05495 24H22.0795C22.6047 23.9766 23.0998 23.7484 23.4587 23.3643C23.8176 22.9802 24.0117 22.4707 23.9995 21.9452V1.87698C24.0037 1.62576 23.9567 1.37631 23.8611 1.14393C23.7656 0.911546 23.6236 0.701128 23.4438 0.525581C23.264 0.350034 23.0503 0.213057 22.8157 0.12305C22.5811 0.0330427 22.3306 -0.00809734 22.0795 0.00215312V0.00215312ZM7.49983 20.0104H4.00491V9.31632H7.49983V20.0104ZM5.83487 7.69646C5.59098 7.70496 5.34798 7.66294 5.12112 7.57303C4.89425 7.48313 4.68843 7.34729 4.51658 7.17404C4.34473 7.0008 4.21057 6.79389 4.12251 6.56631C4.03446 6.33874 3.99442 6.09542 4.00491 5.85163C3.99412 5.60521 4.03497 5.35925 4.12483 5.12954C4.21469 4.89983 4.35157 4.69144 4.5267 4.51774C4.70183 4.34403 4.91134 4.20885 5.14178 4.12086C5.37223 4.03287 5.61852 3.99402 5.86487 4.00679C6.10875 3.9983 6.35175 4.04032 6.57862 4.13022C6.80548 4.22013 7.0113 4.35597 7.18315 4.52921C7.355 4.70246 7.48916 4.90937 7.57722 5.13694C7.66527 5.36452 7.70531 5.60784 7.69482 5.85163C7.70561 6.09805 7.66476 6.344 7.5749 6.57371C7.48504 6.80342 7.34816 7.01182 7.17303 7.18552C6.9979 7.35923 6.78839 7.49441 6.55795 7.5824C6.3275 7.67039 6.08121 7.70924 5.83487 7.69646V7.69646ZM20.0095 20.0104H16.4996V14.1609C16.4996 12.766 16.0046 11.8061 14.7597 11.8061C14.3729 11.8095 13.9967 11.9323 13.6825 12.1579C13.3683 12.3834 13.1315 12.7006 13.0047 13.066C12.9072 13.3399 12.8663 13.6307 12.8847 13.9209V20.0104H9.43478V9.31632H12.8847V10.8162C13.1914 10.2527 13.6479 9.78504 14.2038 9.46477C14.7597 9.1445 15.3933 8.98411 16.0346 9.00135C18.2996 9.00135 20.0095 10.5012 20.0095 13.6959V20.0104Z" fill="#F24E1E"></path>
    </symbol>
  </symbol>
</svg>