<?xml version="1.0" encoding="UTF-8"?>
<svg width="512px" height="111px" viewBox="0 0 512 111" version="1.1" xmlns="http://www.w3.org/2000/svg" xmlns:xlink="http://www.w3.org/1999/xlink">
    <!-- Generator: Sketch 61 (89581) - https://sketch.com -->
    <title>Group Copy@2x</title>
    <desc>Created with Sketch.</desc>
    <g id="Design-System" stroke="none" stroke-width="1" fill="none" fill-rule="evenodd">
        <g id="Group-Copy">
            <path d="M512,29.8463169 L495.829315,29.8473914 L495.830393,51.3349487 L460.799479,51.3349487 L460.799479,29.8463169 L444.629872,29.8463169 L444.629872,51.3349487 L416.336294,51.3349487 C411.137227,51.3349487 406.906179,47.117383 406.906179,41.9338066 L406.905101,29.8463169 L390.735495,29.8473914 L390.736573,41.9348812 C390.736573,47.117383 386.505525,51.3349487 381.30538,51.3349487 C376.104156,51.3349487 371.874187,47.117383 371.874187,41.9348812 L371.874187,29.8463169 L355.70458,29.8463169 L355.70458,41.9348812 C355.70458,47.117383 351.473533,51.3349487 346.273388,51.3349487 L336.843273,51.3349487 L336.843273,29.8463169 L320.673666,29.8463169 L320.673666,51.3349487 L234.442231,51.3349487 L234.442231,67.4530344 L253.304616,67.4530344 L253.304616,70.1383075 C253.304616,83.4690388 242.425705,94.3132869 229.052362,94.3132869 C215.680097,94.3132869 204.801186,83.4690388 204.801186,70.1383075 L204.801186,51.3349487 L188.631579,51.3349487 L188.631579,70.1383075 C188.631579,92.3565513 206.765254,110.431373 229.052362,110.431373 C251.341626,110.431373 269.474223,92.3565513 269.474223,70.1383075 L269.474223,67.4530344 L320.673666,67.4530344 L336.843273,67.4530344 L346.273388,67.4530344 C353.045219,67.4530344 359.205839,64.8139665 363.789384,60.5201085 C368.37185,64.8139665 374.533549,67.4530344 381.30538,67.4530344 C388.076133,67.4530344 394.237831,64.8139665 398.821376,60.5201085 C403.403843,64.8139665 409.564463,67.4530344 416.336294,67.4530344 L444.629872,67.4530344 L460.799479,67.4530344 L512,67.4530344 L512,29.8463169 Z" id="Fill-4" fill="#000000"></path>
            <polygon id="Fill-6" fill="#000000" points="425.169591 96.8654569 444.515399 96.8654569 444.515399 110.431373 461.099415 110.431373 461.099415 80.5850556 425.169591 80.5850556"></polygon>
            <polygon id="Fill-5" fill="#000000" points="512 0 479.064327 0 479.064327 14.9231585 512 14.9231585"></polygon>
            <polygon id="Fill-2" fill="#F15A22" points="134.736842 56.7080021 53.8947368 56.7080021 53.8947368 29.8463169 134.736842 29.8463169"></polygon>
            <polygon id="Fill-3" fill="#F15A22" points="134.736842 110.431373 0 110.431373 0 83.5696873 134.736842 83.5696873"></polygon>
        </g>
    </g>
</svg>